<?xml version="1.0" encoding="UTF-8"?>
<svg id="Layer_2" data-name="Layer 2" xmlns="http://www.w3.org/2000/svg" viewBox="0 0 340 82.45">
  <defs>
    <style>
      .cls-1 {
        fill: #231f20;
      }

      .cls-2 {
        fill: #8dc642;
      }
    </style>
  </defs>
  <g id="Layer_2-2" data-name="Layer 2">
    <g id="Layer_1-2" data-name="Layer 1-2">
      <path id="_8" data-name=" 8" class="cls-2" d="M273.9,82.45c-5.82,0-10.66-.62-14.53-1.85-3.87-1.23-6.94-2.92-9.23-5.05-2.28-2.14-3.89-4.66-4.81-7.58-.92-2.92-1.38-6.1-1.38-9.55,0-4.93,1.11-8.95,3.32-12.08,2.21-3.12,4.97-5.22,8.29-6.29-1.33-.49-2.6-1.21-3.81-2.16-1.22-.94-2.28-2.14-3.2-3.57-.92-1.44-1.68-3.1-2.27-4.99-.59-1.89-.88-4.07-.88-6.53,0-3.78.68-7.09,2.04-9.92s3.31-5.22,5.86-7.15c2.54-1.93,5.6-3.37,9.17-4.31,3.57-.94,7.57-1.42,11.99-1.42h35.03c4.42,0,8.42.47,11.99,1.42,3.57.95,6.63,2.38,9.17,4.31s4.49,4.31,5.86,7.15c1.36,2.83,2.04,6.14,2.04,9.92,0,2.46-.3,4.64-.88,6.53-.59,1.89-1.34,3.56-2.26,4.99-.92,1.44-1.99,2.63-3.2,3.57-1.22.95-2.49,1.66-3.81,2.16,3.31,1.07,6.08,3.16,8.29,6.29,2.21,3.12,3.31,7.15,3.31,12.08,0,3.45-.46,6.64-1.38,9.55-.92,2.92-2.52,5.44-4.81,7.58-2.28,2.14-5.36,3.82-9.23,5.05-3.87,1.23-8.71,1.85-14.53,1.85h-36.15ZM273.79,49.91c-4.72,0-7.07,1.85-7.07,5.55s2.36,5.79,7.07,5.79h36.36c4.71,0,7.07-1.93,7.07-5.79s-2.36-5.55-7.07-5.55h-36.36ZM273.46,21.44c-1.62,0-3.08.37-4.37,1.11s-1.93,2.14-1.93,4.19.63,3.59,1.88,4.38c1.25.78,2.73,1.17,4.42,1.17h37.02c1.69,0,3.17-.39,4.42-1.17s1.88-2.24,1.88-4.38-.65-3.45-1.93-4.19c-1.29-.74-2.75-1.11-4.36-1.11h-37.03Z"/>
      <g id="CRE">
        <path class="cls-1" d="M82.94,61.25l16.23,21.2h-54.64c-6.41,0-12.34-1.07-17.79-3.2-5.45-2.14-10.15-5.07-14.09-8.81s-7.04-8.17-9.28-13.31c-2.25-5.13-3.37-10.7-3.37-16.7s1.12-11.48,3.37-16.45c2.25-4.97,5.34-9.24,9.28-12.82,3.94-3.57,8.64-6.33,14.09-8.26C32.19.97,38.12,0,44.53,0h22.76l16.05,21.45h-38.8c-3.09,0-5.97.49-8.62,1.48-2.65.99-4.94,2.36-6.85,4.13-1.92,1.77-3.43,3.88-4.53,6.35-1.11,2.46-1.66,5.18-1.66,8.13s.53,5.65,1.6,8.07,2.58,4.5,4.53,6.22c1.95,1.73,4.25,3.06,6.91,4,2.65.95,5.53,1.42,8.62,1.42h38.4Z"/>
        <path class="cls-1" d="M173.29,82.45h-30.61l-16.47-21.81-15.33-20.33h21.63c3.54,0,6.52-.82,8.95-2.47,2.43-1.64,3.65-3.9,3.65-6.78,0-3.2-1.11-5.61-3.31-7.21-2.21-1.6-5.31-2.4-9.28-2.4h-35.88L80.44,0h50.19C134.83,0,139.17.43,143.67,1.29c4.49.86,8.58,2.4,12.27,4.62,3.68,2.22,6.72,5.22,9.12,9,2.39,3.78,3.59,8.63,3.59,14.54,0,3.2-.44,6.25-1.33,9.12-.88,2.88-2.15,5.47-3.81,7.76-1.66,2.3-3.68,4.25-6.08,5.85-2.39,1.6-5.1,2.73-8.12,3.39,1.25,1.07,2.65,2.42,4.2,4.07,1.55,1.64,3.61,3.9,6.19,6.78l13.59,16.02h0Z"/>
        <path class="cls-1" d="M235.4,61.25l11.53,21.2h-69.74V0h71.17l-11.53,21.45h-36.66v9.86h38.4l-13.15,18.73h-25.25v11.22h35.23,0Z"/>
      </g>
    </g>
  </g>
</svg>